<svg xmlns="http://www.w3.org/2000/svg" viewBox="0 0 103.00079 115.41146" width="103.001" height="115.411"><g transform="matrix(1.93157 0 0 1.93157 -18.036 -12.072)"><path d="M58.363 49.283c-3.55 8.995-12.463 14.81-22.898 14.81-8.995 0-18.998-5.628-22.548-14.623l-.124-.308c-1.127-2.822-.93-6.275-.93-9.504l3.616-31.925 10.078 9.932c2.883-1.23 6.055-1.913 9.383-1.913h1.05c3.328 0 6.5.68 9.383 1.913l11.08-10.932 3.67 33.423c0 3.23-.62 6.312-1.746 9.133" fill="#f4aa41"/><path d="M35.465 64.093c10.468.338 20.083-5.782 23.632-14.777l.11-.228c1.126-2.82.93-6.804.93-10.033L56.453 6.733" fill="#e27022"/><ellipse cx="36" cy="51.719" rx="6.452" ry="7.751" fill="#ea5a47"/><ellipse cx="24.456" cy="34.194" rx="7.751" ry="6.452" transform="rotate(-70.494 24.456 34.194)" fill="#fff"/><ellipse cx="46.84" cy="34.195" rx="6.452" ry="7.751" transform="rotate(-19.507 46.84 34.196)" fill="#fff"/><path d="M15.295 65h9.034s1.373-13.37 0-15.81c-1-1.774-2.548-5.27-6.853-5.138-1.558.048-6.01 1.347-4.71 5.25 1.813 5.44 3.422 4.506 4.293 6.18C18.204 57.678 15.295 65 15.295 65zM56.324 65H47.29s-1.374-13.37 0-15.81c.998-1.774 2.548-5.27 6.853-5.138 1.557.048 6.01 1.347 4.71 5.25-1.814 5.44-3.423 4.506-4.294 6.18C53.414 57.678 56.323 65 56.323 65z" fill="#f4aa41"/></g><g transform="matrix(1.9316 0 0 1.9316 -18.036 -12.072)" stroke-miterlimit="10" fill="none" stroke="#000" stroke-width="2" stroke-linecap="round" stroke-linejoin="round"><path d="M61.65 54.45l-4.04-2.25M57.55 59.58l-3.21-1.78M12.92 46.48s-.01-.01 0-.01c-.67-2.19-1.03-4.5-1.03-6.9l3.59-32.32 10.83 10.57c2.82-1.19 5.92-1.85 9.18-1.85h1.02c3.26 0 6.36.66 9.18 1.85L56.52 7.25l3.59 32.32c0 2.59-.41 5.07-1.19 7.4M24.7 60.56c3.23 1.67 6.9 2.61 10.79 2.61h1.02c3.75 0 7.28-.87 10.43-2.42M14.1 52.36l-3.75 2.09M17.25 58.02l-2.8 1.56"/><ellipse cx="36" cy="51.719" rx="6.452" ry="7.751"/><ellipse cx="24.456" cy="34.194" rx="7.751" ry="6.452" transform="rotate(-70.494 24.456 34.194)"/><ellipse cx="46.84" cy="34.195" rx="6.452" ry="7.751" transform="rotate(-19.507 46.84 34.196)"/><path d="M15.295 65h9.034s1.373-13.37 0-15.81c-1-1.774-2.548-5.27-6.853-5.138-1.558.048-6.01 1.347-4.71 5.25 1.813 5.44 3.422 4.506 4.293 6.18C18.204 57.678 15.295 65 15.295 65zM56.324 65H47.29s-1.374-13.37 0-15.81c.998-1.774 2.548-5.27 6.853-5.138 1.557.048 6.01 1.347 4.71 5.25-1.814 5.44-3.423 4.506-4.294 6.18C53.414 57.678 56.323 65 56.323 65z"/></g></svg>