<svg xmlns="http://www.w3.org/2000/svg" viewBox="0 0 103.00079 115.41146" width="103.001" height="115.411"><path d="M10.704 13.406c-4.29 0-7.77 3.478-7.77 7.77v22.887l-.003 8.802c0 .545.638.842 1.055.49l9.762-8.524c.35-.294.793-.456 1.25-.456h60.127c4.29 0 7.77-3.478 7.77-7.77v-15.43c0-4.29-3.48-7.768-7.77-7.768z" fill="#d0cfce"/><path d="M99.016 101.914c.417.35 1.054.055 1.054-.49l-.004-8.295h.002v-23.2c0-4.29-3.48-7.77-7.77-7.77H28.303c-4.29 0-7.77 3.48-7.77 7.77v15.43c0 4.29 3.48 7.77 7.77 7.77H88.24c.456 0 .9.16 1.25.455z" fill="#9b9b9a"/><g transform="translate(-18.512 -15.68) scale(1.9423)"><path d="M15.042 14.976c-2.21 0-4 1.79-4 4V30.76l-.002 4.53c0 .282.328.435.543.254l5.026-4.39c.18-.15.407-.234.643-.234H48.21c2.208 0 4-1.79 4-4v-7.944c0-2.21-1.792-4-4-4zM60.51 60.544c.214.18.542.03.542-.252l-.002-4.27V44.076c0-2.21-1.79-4-4-4H24.104c-2.21 0-4 1.79-4 4v7.944c0 2.21 1.79 4 4 4H54.96c.237 0 .465.084.645.236z" stroke-miterlimit="10" fill="none" stroke="#000" stroke-width="2"/><circle r="2" cy="48.059" cx="31.997"/><circle r="2" cy="48.059" cx="40.008"/><circle r="2" cy="48.059" cx="48.02"/></g></svg>