<svg xmlns="http://www.w3.org/2000/svg" width="153" height="88" viewBox="0 0 306 176"><path fill="#d0cfce" d="M5.968 5.968h294.187v164.744H5.968z"/><path fill="#9b9b9a" d="M300.155 5.968v164.744h-60.69L156.074 5.968"/><path fill="#b1cc33" d="M35.386 35.386H229.55v65.898H35.386z"/><path fill="#5c9e31" d="M229.55 35.386v65.898h-44.058l-33.355-65.898"/><g transform="matrix(5.88374 0 0 5.88374 -58.754 -123.475)"><path fill="none" stroke="#000" stroke-width="2" stroke-linecap="round" stroke-linejoin="round" d="M11 50V22M61 50H11M61 22v28M11 22h50"/><path fill="none" stroke="#000" stroke-width="1.8" stroke-linecap="round" stroke-linejoin="round" d="M16 38.2V27M49 38.2H16M49 27v11.2M16 27h33"/><circle cx="20.638" cy="44.1" r="2"/><circle cx="28.638" cy="44.1" r="2"/><circle cx="36.638" cy="44.1" r="2"/></g></svg>